<svg xmlns="http://www.w3.org/2000/svg" width="512" height="512" viewBox="0 0 512 512">
  <defs>
    <linearGradient id="bg" x1="0" y1="0" x2="1" y2="1">
      <stop offset="0" stop-color="#101D35"/>
      <stop offset="1" stop-color="#080D18"/>
    </linearGradient>
    <linearGradient id="cloud" x1="0" y1="0" x2="1" y2="1">
      <stop offset="0" stop-color="#70B7FF"/>
      <stop offset=".48" stop-color="#3569E8"/>
      <stop offset="1" stop-color="#39D6C5"/>
    </linearGradient>
    <filter id="glow" x="-40%" y="-40%" width="180%" height="180%">
      <feGaussianBlur stdDeviation="9" result="blur"/>
      <feMerge><feMergeNode in="blur"/><feMergeNode in="SourceGraphic"/></feMerge>
    </filter>
  </defs>
  <rect x="8" y="8" width="496" height="496" rx="112" fill="url(#bg)" stroke="#2A5BAA" stroke-width="5"/>
  <path d="M100 142 Q256 48 412 142" fill="none" stroke="#3569E8" stroke-width="3" opacity=".5"/>
  <g filter="url(#glow)">
    <path d="M151 345 C112 345 86 316 86 280 C86 244 113 216 149 214 C160 166 202 132 253 132 C304 132 344 166 357 211 C397 213 426 243 426 281 C426 317 398 345 361 345 L315 345"
      fill="none" stroke="url(#cloud)" stroke-width="27" stroke-linecap="round" stroke-linejoin="round"/>
    <path d="M151 345 L199 345 C222 345 231 329 247 313 L278 282 L306 310"
      fill="none" stroke="url(#cloud)" stroke-width="25" stroke-linecap="round" stroke-linejoin="round"/>
    <path d="M277 282 L277 225 M277 225 L254 248 M277 225 L300 248"
      fill="none" stroke="#6BE9F2" stroke-width="20" stroke-linecap="round" stroke-linejoin="round"/>
    <path d="M325 274 L325 332 M325 332 L302 309 M325 332 L348 309"
      fill="none" stroke="#39D6C5" stroke-width="20" stroke-linecap="round" stroke-linejoin="round"/>
  </g>
  <circle cx="120" cy="112" r="5" fill="#39D6C5" opacity=".8"/>
  <circle cx="393" cy="390" r="4" fill="#5687FF" opacity=".9"/>
</svg>